<?xml version="1.0" encoding="UTF-8" standalone="no"?>
<svg
   xmlns:osb="http://www.openswatchbook.org/uri/2009/osb"
   xmlns:dc="http://purl.org/dc/elements/1.1/"
   xmlns:cc="http://creativecommons.org/ns#"
   xmlns:rdf="http://www.w3.org/1999/02/22-rdf-syntax-ns#"
   xmlns:svg="http://www.w3.org/2000/svg"
   xmlns="http://www.w3.org/2000/svg"
   xmlns:xlink="http://www.w3.org/1999/xlink"
   width="95mm"
   height="40mm"
   viewBox="0 0 95 40"
   version="1.1"
   id="svg8">
  <defs
     id="defs2">
    <linearGradient
       id="linearGradient3410"
       osb:paint="gradient">
      <stop
         style="stop-color:#ff3000;stop-opacity:1;"
         offset="0"
         id="stop3406" />
      <stop
         style="stop-color:#000000;stop-opacity:0;"
         offset="1"
         id="stop3408" />
    </linearGradient>
    <linearGradient
       id="linearGradient3360">
      <stop
         style="stop-color:#000000;stop-opacity:1;"
         offset="0"
         id="stop3356" />
      <stop
         style="stop-color:#000000;stop-opacity:0;"
         offset="1"
         id="stop3358" />
    </linearGradient>
    <linearGradient
       xlink:href="#linearGradient3360"
       id="linearGradient3388"
       x1="25.978887"
       y1="20.284564"
       x2="85.326813"
       y2="20.284564"
       gradientUnits="userSpaceOnUse" />
  </defs>
  <metadata
     id="metadata5">
    <rdf:RDF>
      <cc:Work
         rdf:about="">
        <dc:format>image/svg+xml</dc:format>
        <dc:type
           rdf:resource="http://purl.org/dc/dcmitype/StillImage" />
        <dc:title></dc:title>
      </cc:Work>
    </rdf:RDF>
  </metadata>
  <g
     id="layer1">
    <g
       id="Layer_1"
       transform="matrix(0.00463496,0.50352655,-0.49377515,0.0045452,27.072979,7.5172822)"
       style="opacity:1;fill:#e91e63;fill-opacity:1;fill-rule:nonzero;stroke:none;stroke-opacity:1;image-rendering:auto">
      <path
         d="m 19,25 c 0,3.309 2.691,6 6,6 3.309,0 6,-2.691 6,-6 0,-3.309 -2.691,-6 -6,-6 -3.309,0 -6,2.691 -6,6 z m 10,0 c 0,2.206 -1.794,4 -4,4 -2.206,0 -4,-1.794 -4,-4 0,-2.206 1.794,-4 4,-4 2.206,0 4,1.794 4,4 z"
         id="path52"
         style="fill:#e91e63;fill-opacity:1;fill-rule:nonzero;stroke:none;stroke-opacity:1" />
      <path
         d="M 40.557,9.443 C 44.712,13.599 47,19.123 47,25 c 0,5.877 -2.288,11.401 -6.443,15.557 l 1.414,1.414 C 46.503,37.438 49,31.411 49,25 49,18.589 46.503,12.562 41.971,8.029 Z"
         id="path54"
         style="fill:#e91e63;fill-opacity:1;fill-rule:nonzero;stroke:none;stroke-opacity:1" />
      <path
         d="M 36.313,36.313 C 39.335,33.293 41,29.274 41,25 41,20.726 39.335,16.707 36.313,13.687 l -1.414,1.414 C 37.544,17.744 39,21.26 39,25 c 0,3.74 -1.456,7.256 -4.101,9.899 z"
         id="path56"
         style="fill:#e91e63;fill-opacity:1;fill-rule:nonzero;stroke:none;stroke-opacity:1" />
      <path
         d="M 13.687,13.687 C 10.665,16.707 9,20.726 9,25 c 0,4.274 1.665,8.293 4.687,11.313 l 1.414,-1.414 C 12.456,32.256 11,28.74 11,25 c 0,-3.74 1.456,-7.256 4.101,-9.899 z"
         id="path58"
         style="fill:#e91e63;fill-opacity:1;fill-rule:nonzero;stroke:none;stroke-opacity:1" />
      <path
         d="M 9.443,40.557 C 5.288,36.401 3,30.877 3,25 3,19.123 5.288,13.599 9.443,9.443 L 8.029,8.029 C 3.497,12.562 1,18.589 1,25 1,31.411 3.497,37.438 8.029,41.971 Z"
         id="path60"
         style="fill:#e91e63;fill-opacity:1;fill-rule:nonzero;stroke:none;stroke-opacity:1" />
    </g>
    <g
       id="g63"
       transform="matrix(0.26458333,0,0,0.26458333,80.319941,55.373512)"
       style="stroke:none;stroke-opacity:0" />
    <g
       id="g915"
       style="fill:#ffffff">
      <g
         id="g921"
         style="fill:#ffffff;opacity:0.88">
        <text
           xml:space="preserve"
           style="font-style:normal;font-variant:normal;font-weight:normal;font-stretch:normal;font-size:14.1111px;line-height:1.25;font-family:Archivo;-inkscape-font-specification:Archivo;opacity:0.870372;stroke:none;stroke-width:0.264583;stroke-opacity:0;fill:#ffffff"
           x="21.490614"
           y="25.507324"
           id="text110"><tspan
             id="tspan108"
             x="21.490614"
             y="25.507324"
             style="font-style:normal;font-variant:normal;font-weight:normal;font-stretch:normal;font-size:14.1111px;font-family:Archivo;-inkscape-font-specification:Archivo;stroke:none;stroke-width:0.264583;stroke-opacity:0;fill:#ffffff">blastwaver</tspan></text>
      </g>
    </g>
  </g>
</svg>
